HIERARCHY
ROOT hip
{
OFFSET -0.03 97.06 0
CHANNELS 6 Xposition Yposition Zposition Zrotation Xrotation Yrotation
JOINT abdomen
{
OFFSET 0 7.23 0
CHANNELS 6 Xposition Yposition Zposition Zrotation Xrotation Yrotation
JOINT chest
{
OFFSET 0 16.54 0
CHANNELS 6 Xposition Yposition Zposition Zrotation Xrotation Yrotation
JOINT neck
{
OFFSET 0 34.21 0
CHANNELS 6 Xposition Yposition Zposition Zrotation Xrotation Yrotation
JOINT head
{
OFFSET 0 6.29 0
CHANNELS 6 Xposition Yposition Zposition Zrotation Xrotation Yrotation
End Site
{
OFFSET 0 21.21 0
}
}
}
JOINT lCollar
{
OFFSET 4.06 26.61 -1.12
CHANNELS 6 Xposition Yposition Zposition Zrotation Xrotation Yrotation
JOINT lShldr
{
OFFSET 14.17 0 0
CHANNELS 6 Xposition Yposition Zposition Zrotation Xrotation Yrotation
JOINT lForeArm
{
OFFSET 26.12 0 0
CHANNELS 6 Xposition Yposition Zposition Zrotation Xrotation Yrotation
JOINT lHand
{
OFFSET 27.71 0 0
CHANNELS 6 Xposition Yposition Zposition Zrotation Xrotation Yrotation
JOINT lThumb1
{
OFFSET 2.29 -0.46 1.83
CHANNELS 6 Xposition Yposition Zposition Zrotation Xrotation Yrotation
JOINT lThumb2
{
OFFSET 5.29 0 0
CHANNELS 6 Xposition Yposition Zposition Zrotation Xrotation Yrotation
JOINT lThumb3
{
OFFSET 3.01 0 0
CHANNELS 6 Xposition Yposition Zposition Zrotation Xrotation Yrotation
End Site
{
OFFSET 2.62 0 0
}
}
}
}
JOINT lIndex1
{
OFFSET 9.37 0.29 2.59
CHANNELS 6 Xposition Yposition Zposition Zrotation Xrotation Yrotation
JOINT lIndex2
{
OFFSET 4.34 0 0
CHANNELS 6 Xposition Yposition Zposition Zrotation Xrotation Yrotation
JOINT lIndex3
{
OFFSET 2.16 0 0
CHANNELS 6 Xposition Yposition Zposition Zrotation Xrotation Yrotation
End Site
{
OFFSET 2.20 0 0
}
}
}
}
JOINT lMid1
{
OFFSET 9.47 0.83 0.29
CHANNELS 6 Xposition Yposition Zposition Zrotation Xrotation Yrotation
JOINT lMid2
{
OFFSET 4.77 0 0
CHANNELS 6 Xposition Yposition Zposition Zrotation Xrotation Yrotation
JOINT lMid3
{
OFFSET 2.87 0 0
CHANNELS 6 Xposition Yposition Zposition Zrotation Xrotation Yrotation
End Site
{
OFFSET 2.09 0 0
}
}
}
}
JOINT lRing1
{
OFFSET 8.65 1.01 -1.70
CHANNELS 6 Xposition Yposition Zposition Zrotation Xrotation Yrotation
JOINT lRing2
{
OFFSET 4.54 0 0
CHANNELS 6 Xposition Yposition Zposition Zrotation Xrotation Yrotation
JOINT lRing3
{
OFFSET 2.50 0 0
CHANNELS 6 Xposition Yposition Zposition Zrotation Xrotation Yrotation
End Site
{
OFFSET 2.20 0 0
}
}
}
}
JOINT lPinky1
{
OFFSET 7.69 0.66 -3.90
CHANNELS 6 Xposition Yposition Zposition Zrotation Xrotation Yrotation
JOINT lPinky2
{
OFFSET 3.21 0 0
CHANNELS 6 Xposition Yposition Zposition Zrotation Xrotation Yrotation
JOINT lPinky3
{
OFFSET 1.92 0 0
CHANNELS 6 Xposition Yposition Zposition Zrotation Xrotation Yrotation
End Site
{
OFFSET 1.78 0 0
}
}
}
}
}
}
}
}
JOINT rCollar
{
OFFSET -4.06 26.61 -1.12
CHANNELS 6 Xposition Yposition Zposition Zrotation Xrotation Yrotation
JOINT rShldr
{
OFFSET -14.17 0 0
CHANNELS 6 Xposition Yposition Zposition Zrotation Xrotation Yrotation
JOINT rForeArm
{
OFFSET -26.12 0 0
CHANNELS 6 Xposition Yposition Zposition Zrotation Xrotation Yrotation
JOINT rHand
{
OFFSET -27.71 0 0
CHANNELS 6 Xposition Yposition Zposition Zrotation Xrotation Yrotation
JOINT rThumb1
{
OFFSET -2.29 -0.46 1.83
CHANNELS 6 Xposition Yposition Zposition Zrotation Xrotation Yrotation
JOINT rThumb2
{
OFFSET -5.29 0 0
CHANNELS 6 Xposition Yposition Zposition Zrotation Xrotation Yrotation
JOINT rThumb3
{
OFFSET -3.01 0 0
CHANNELS 6 Xposition Yposition Zposition Zrotation Xrotation Yrotation
End Site
{
OFFSET -2.62 0 0
}
}
}
}
JOINT rIndex1
{
OFFSET -9.37 0.29 2.59
CHANNELS 6 Xposition Yposition Zposition Zrotation Xrotation Yrotation
JOINT rIndex2
{
OFFSET -4.34 0 0
CHANNELS 6 Xposition Yposition Zposition Zrotation Xrotation Yrotation
JOINT rIndex3
{
OFFSET -2.16 0 0
CHANNELS 6 Xposition Yposition Zposition Zrotation Xrotation Yrotation
End Site
{
OFFSET -2.20 0 0
}
}
}
}
JOINT rMid1
{
OFFSET -9.47 0.83 0.29
CHANNELS 6 Xposition Yposition Zposition Zrotation Xrotation Yrotation
JOINT rMid2
{
OFFSET -4.77 0 0
CHANNELS 6 Xposition Yposition Zposition Zrotation Xrotation Yrotation
JOINT rMid3
{
OFFSET -2.87 0 0
CHANNELS 6 Xposition Yposition Zposition Zrotation Xrotation Yrotation
End Site
{
OFFSET -2.09 0 0
}
}
}
}
JOINT rRing1
{
OFFSET -8.65 1.01 -1.70
CHANNELS 6 Xposition Yposition Zposition Zrotation Xrotation Yrotation
JOINT rRing2
{
OFFSET -4.54 0 0
CHANNELS 6 Xposition Yposition Zposition Zrotation Xrotation Yrotation
JOINT rRing3
{
OFFSET -2.50 0 0
CHANNELS 6 Xposition Yposition Zposition Zrotation Xrotation Yrotation
End Site
{
OFFSET -2.20 0 0
}
}
}
}
JOINT rPinky1
{
OFFSET -7.69 0.66 -3.90
CHANNELS 6 Xposition Yposition Zposition Zrotation Xrotation Yrotation
JOINT rPinky2
{
OFFSET -3.21 0 0
CHANNELS 6 Xposition Yposition Zposition Zrotation Xrotation Yrotation
JOINT rPinky3
{
OFFSET -1.92 0 0
CHANNELS 6 Xposition Yposition Zposition Zrotation Xrotation Yrotation
End Site
{
OFFSET -1.78 0 0
}
}
}
}
}
}
}
}
}
}
JOINT lThigh
{
OFFSET 8.73 -0 0
CHANNELS 6 Xposition Yposition Zposition Zrotation Xrotation Yrotation
JOINT lShin
{
OFFSET 0 -46.66 0
CHANNELS 6 Xposition Yposition Zposition Zrotation Xrotation Yrotation
JOINT lFoot
{
OFFSET 0 -40.14 0
CHANNELS 6 Xposition Yposition Zposition Zrotation Xrotation Yrotation
JOINT lToes
{
OFFSET 0 -8.88 14.22
CHANNELS 6 Xposition Yposition Zposition Zrotation Xrotation Yrotation
End Site
{
OFFSET 0 0 6.29
}
}
}
}
}
JOINT rThigh
{
OFFSET -8.73 0 -0
CHANNELS 6 Xposition Yposition Zposition Zrotation Xrotation Yrotation
JOINT rShin
{
OFFSET 0 -46.66 0
CHANNELS 6 Xposition Yposition Zposition Zrotation Xrotation Yrotation
JOINT rFoot
{
OFFSET 0 -40.14 0
CHANNELS 6 Xposition Yposition Zposition Zrotation Xrotation Yrotation
JOINT rToes
{
OFFSET 0 -8.88 14.22
CHANNELS 6 Xposition Yposition Zposition Zrotation Xrotation Yrotation
End Site
{
OFFSET 0 0 6.29
}
}
}
}
}
}
MOTION
Frames: 4
Frame Time: 0.03
-0.03 97.06 0 -0.74 -0.14 2.18 0 7.23 0 0.41 -2.74 1.01 0 16.54 0 0.61 -3.61 2.02 0 34.21 0 4.12 39.62 -0.47 0 6.29 0 -6.11 -28.34 -5.69 4.06 26.61 -1.12 -7.72 -8.39 -5.92 14.17 0 0 -86.77 36.94 18.25 26.12 0 0 -0.13 0.01 -9.30 27.71 0 0 -6.91 -15.94 6.15 2.29 -0.46 1.83 55.78 64.76 -73.62 5.29 0 0 -27.86 0.63 7.77 3.01 0 0 35.11 -1.50 8.36 9.37 0.29 2.59 -13.33 -2.06 4.97 4.34 0 0 -15.75 -0.17 3.23 2.16 0 0 -8.63 -0.12 1.30 9.47 0.83 0.29 -14.27 -4.93 4.20 4.77 0 0 -16.53 -0.52 4.23 2.87 0 0 -2.43 0.09 2.04 8.65 1.01 -1.70 -19.53 1.39 0.36 4.54 0 0 -21.00 -0.52 2.83 2.50 0 0 0.22 0.05 0.89 7.69 0.66 -3.90 -21.72 -9.94 -4.11 3.21 0 0 -20.96 -1.32 7.14 1.92 0 0 -1.82 0.04 2.16 -4.06 26.61 -1.12 5.44 -7.04 -5.08 -14.17 0 0 86.70 48.22 -16.27 -26.12 0 0 0.16 0.01 10.81 -27.71 0 0 5.47 -18.12 0.46 -2.29 -0.46 1.83 -59.02 63.37 65.91 -5.29 0 0 19.53 2.44 1.44 -3.01 0 0 -31.97 5.76 -17.87 -9.37 0.29 2.59 9.81 -1.78 -5.93 -4.34 0 0 13.44 -0.01 -2.48 -2.16 0 0 8.06 -0.09 -1.06 -9.47 0.83 0.29 16.46 -4.99 -5.73 -4.77 0 0 19.71 -0.70 -4.59 -2.87 0 0 1.87 0.09 -1.77 -8.65 1.01 -1.70 21.90 1.32 -1.15 -4.54 0 0 24.29 -0.59 -2.75 -2.50 0 0 -0.81 0.04 -0.69 -7.69 0.66 -3.90 27.96 -10.50 0.39 -3.21 0 0 28.76 -2.30 -8.98 -1.92 0 0 1.28 0.05 -1.84 8.73 -0 0 2.53 -6.07 19.24 0 -46.66 0 1.19 12.99 -3.37 0 -40.14 0 0.21 -6.45 14.14 0 -8.88 14.22 0 0 0 -8.73 0 -0 0.77 -4.17 -7.35 0 -46.66 0 0.24 9.41 -5.32 0 -40.14 0 -0.98 -5.16 -5.31 0 -8.88 14.22 0 0 -0 
-0.06 96.96 0.07 -0.67 -0.17 2.18 0 7.23 0 0.36 -2.74 1.00 0 16.54 0 0.61 -3.61 2.00 0 34.21 0 4.11 39.60 -0.47 0 6.29 0 -6.02 -29.22 -5.67 4.06 26.61 -1.12 -7.57 -7.96 -3.05 14.17 0 0 -84.74 36.77 11.51 26.12 0 0 -0.01 0 -0.82 27.71 0 0 -8.01 -15.58 0 2.29 -0.46 1.83 55.65 64.94 -73.68 5.29 0 0 -27.94 0.63 7.78 3.01 0 0 35.49 -1.43 8.31 9.37 0.29 2.59 -13.30 -2.05 5.03 4.34 0 0 -15.76 -0.17 3.23 2.16 0 0 -8.63 -0.12 1.30 9.47 0.83 0.29 -13.50 -4.88 4.26 4.77 0 0 -16.55 -0.52 4.23 2.87 0 0 -2.44 0.09 2.04 8.65 1.01 -1.70 -19.32 1.41 0.57 4.54 0 0 -20.79 -0.51 2.80 2.50 0 0 0.46 0.05 0.86 7.69 0.66 -3.90 -21.52 -9.94 -3.78 3.21 0 0 -20.88 -1.31 7.12 1.92 0 0 -1.73 0.04 2.13 -4.06 26.61 -1.12 6.23 -6.71 -5.36 -14.17 0 0 84.66 46.93 -16.32 -26.12 0 0 0.18 0.02 12.72 -27.71 0 0 4.60 -18.40 -0.15 -2.29 -0.46 1.83 -58.89 63.28 65.86 -5.29 0 0 19.61 2.44 1.41 -3.01 0 0 -31.93 5.77 -17.88 -9.37 0.29 2.59 9.69 -1.77 -5.91 -4.34 0 0 13.45 -0.01 -2.48 -2.16 0 0 8.07 -0.09 -1.06 -9.47 0.83 0.29 16.18 -4.97 -5.76 -4.77 0 0 19.72 -0.70 -4.59 -2.87 0 0 1.89 0.09 -1.77 -8.65 1.01 -1.70 21.73 1.34 -1.25 -4.54 0 0 24.27 -0.59 -2.74 -2.50 0 0 -0.83 0.04 -0.68 -7.69 0.66 -3.90 27.80 -10.48 0.41 -3.21 0 0 28.76 -2.30 -8.98 -1.92 0 0 1.29 0.05 -1.85 8.73 -0 0 2.55 -6.41 19.28 0 -46.66 0 1.33 13.90 -3.51 0 -40.14 0 0.14 -6.98 14.22 0 -8.88 14.22 0 0 0 -8.73 0 -0 0.72 -5.10 -7.37 0 -46.66 0 -0.06 11.57 -5.28 0 -40.14 0 -0.72 -6.35 -5.31 0 -8.88 14.22 0 0 0 
-0.08 96.88 0.12 -0.64 -0.19 2.16 0 7.23 0 0.35 -2.70 0.99 0 16.54 0 0.63 -3.55 1.98 0 34.21 0 4.08 39.57 -0.46 0 6.29 0 -5.79 -31.07 -5.65 4.06 26.61 -1.12 -7.46 -7.42 0.19 14.17 0 0 -82.17 36.82 11.99 26.12 0 0 -0.14 0.01 -9.48 27.71 0 0 -10.33 -17.06 -3.88 2.29 -0.46 1.83 55.43 63.73 -74.11 5.29 0 0 -27.03 0.68 7.71 3.01 0 0 36.19 -1.30 8.20 9.37 0.29 2.59 -11.33 -1.93 4.82 4.34 0 0 -15.79 -0.17 3.24 2.16 0 0 -8.64 -0.12 1.30 9.47 0.83 0.29 -11.16 -4.72 3.96 4.77 0 0 -16.01 -0.48 4.10 2.87 0 0 -1.88 0.09 1.90 8.65 1.01 -1.70 -18.10 1.51 0.55 4.54 0 0 -19.86 -0.47 2.68 2.50 0 0 1.42 0.05 0.73 7.69 0.66 -3.90 -20.64 -9.86 -3.89 3.21 0 0 -20.29 -1.24 6.92 1.92 0 0 -1.13 0.05 1.92 -4.06 26.61 -1.12 7.01 -6.33 -5.70 -14.17 0 0 82.24 45.38 -16.74 -26.12 0 0 0.24 0.03 16.37 -27.71 0 0 3.55 -17.79 -0.84 -2.29 -0.46 1.83 -58.61 62.97 65.77 -5.29 0 0 19.53 2.44 1.44 -3.01 0 0 -31.88 5.77 -17.88 -9.37 0.29 2.59 9.42 -1.76 -5.87 -4.34 0 0 13.46 -0.01 -2.48 -2.16 0 0 8.08 -0.09 -1.06 -9.47 0.83 0.29 15.82 -4.94 -5.80 -4.77 0 0 19.74 -0.71 -4.59 -2.87 0 0 1.91 0.09 -1.78 -8.65 1.01 -1.70 21.51 1.35 -1.34 -4.54 0 0 24.25 -0.59 -2.74 -2.50 0 0 -0.86 0.04 -0.68 -7.69 0.66 -3.90 27.61 -10.47 0.45 -3.21 0 0 28.75 -2.30 -8.98 -1.92 0 0 1.31 0.05 -1.85 8.73 -0 0 2.62 -6.71 19.30 0 -46.66 0 1.46 14.67 -3.62 0 -40.14 0 0.08 -7.42 14.30 0 -8.88 14.22 0 0 0 -8.73 0 -0 0.72 -5.60 -7.28 0 -46.66 0 -0.24 12.76 -5.24 0 -40.14 0 -0.58 -7.01 -5.42 0 -8.88 14.22 0 0 -0 
-0.13 96.81 0.14 -0.66 -0.21 2.12 0 7.23 0 0.35 -2.62 1.01 0 16.54 0 0.63 -3.38 2.02 0 34.21 0 4.04 39.58 -0.44 0 6.29 0 -5.58 -33.11 -5.65 4.06 26.61 -1.12 -7.09 -6.76 3.71 14.17 0 0 -79.89 38.21 13.25 26.12 0 0 -0.31 0.06 -21.75 27.71 0 0 -11.51 -18.28 -8.64 2.29 -0.46 1.83 55.37 60.77 -74.97 5.29 0 0 -25.01 0.78 7.56 3.01 0 0 37.05 -1.14 8.07 9.37 0.29 2.59 -7.77 -1.73 4.21 4.34 0 0 -15.52 -0.15 3.18 2.16 0 0 -8.34 -0.11 1.24 9.47 0.83 0.29 -7.87 -4.53 3.09 4.77 0 0 -14.86 -0.40 3.81 2.87 0 0 -0.70 0.10 1.59 8.65 1.01 -1.70 -15.65 1.70 -0 4.54 0 0 -18.30 -0.39 2.48 2.50 0 0 3.00 0.04 0.51 7.69 0.66 -3.90 -19.05 -9.73 -4.50 3.21 0 0 -19.03 -1.09 6.51 1.92 0 0 0.14 0.05 1.48 -4.06 26.61 -1.12 7.60 -5.88 -6.10 -14.17 0 0 79.75 43.45 -17.72 -26.12 0 0 0.32 0.06 21.99 -27.71 0 0 2.56 -16.30 -1.02 -2.29 -0.46 1.83 -58.25 62.42 65.65 -5.29 0 0 19.10 2.46 1.58 -3.01 0 0 -31.85 5.77 -17.88 -9.37 0.29 2.59 9.08 -1.74 -5.78 -4.34 0 0 13.44 -0.01 -2.48 -2.16 0 0 8.06 -0.09 -1.06 -9.47 0.83 0.29 15.55 -4.92 -5.85 -4.77 0 0 19.80 -0.71 -4.61 -2.87 0 0 1.98 0.09 -1.79 -8.65 1.01 -1.70 21.38 1.36 -1.39 -4.54 0 0 24.27 -0.59 -2.74 -2.50 0 0 -0.83 0.04 -0.68 -7.69 0.66 -3.90 27.53 -10.47 0.53 -3.21 0 0 28.73 -2.30 -8.97 -1.92 0 0 1.27 0.05 -1.84 8.73 -0 0 2.74 -6.97 19.38 0 -46.66 0 1.56 15.33 -3.63 0 -40.14 0 0.01 -7.79 14.26 0 -8.88 14.22 0 0 0 -8.73 0 -0 0.71 -5.91 -8.61 0 -46.66 0 -0.53 13.48 -3.61 0 -40.14 0 -0.61 -7.42 -5.65 0 -8.88 14.22 0 0 -0 
